# Blender 5.2.0 LTS
# www.blender.org
mtllib lion01.mtl
o lion_head
v 0.010563 0.259931 0.102466
v -0.008700 0.259653 0.104359
v 0.051434 0.301021 0.035040
v 0.040478 0.308824 0.044537
v 0.028036 0.256108 0.087742
v 0.041772 0.276148 0.054156
v 0.066274 0.306910 0.012309
v 0.009469 0.303074 0.050993
v 0.056843 0.246230 0.027732
v 0.039272 0.221250 0.081785
v 0.016294 0.223008 0.092663
v 0.009410 0.251391 0.091013
v 0.031634 0.211195 0.061917
v 0.000059 0.220838 0.086431
v -0.020330 0.186694 0.067468
v -0.024642 0.190979 0.038063
v -0.012741 0.295892 0.058005
v -0.042230 0.311796 0.044961
v -0.033186 0.293324 0.041194
v -0.032244 0.277484 0.057521
v -0.029569 0.256569 0.084475
v -0.064333 0.303940 0.016083
v -0.022634 0.336612 0.032076
v -0.032466 0.363986 0.002157
v -0.058031 0.333349 0.012010
v -0.070900 0.259773 0.022642
v -0.031062 0.220284 0.090434
v -0.003004 0.244607 0.093937
v -0.045130 0.208650 0.037053
v 0.106693 0.338893 -0.013776
v 0.088934 0.345377 0.008782
v 0.095144 0.341519 -0.012982
v 0.091082 0.325013 0.000846
v 0.071473 0.351895 0.016585
v 0.114412 0.301855 0.036270
v 0.127360 0.317967 0.011278
v 0.110020 0.359182 -0.045229
v 0.108125 0.363826 -0.001887
v 0.136700 0.294291 -0.034781
v 0.119399 0.326344 -0.007990
v 0.100791 0.245778 0.036861
v 0.097805 0.252572 0.023108
v 0.069075 0.279813 0.024698
v 0.075672 0.240163 0.034830
v 0.107050 0.209269 0.041093
v 0.092821 0.231528 0.035487
v 0.083061 0.216338 0.027029
v 0.077320 0.218853 0.031496
v 0.098618 0.168215 0.023524
v 0.105399 0.158561 0.034905
v 0.105469 0.118502 0.017980
v 0.084374 0.153829 0.031231
v 0.071326 0.194958 0.031638
v 0.069490 0.183314 0.045430
v 0.076822 0.149482 0.045454
v 0.045951 0.129888 0.049577
v 0.018288 0.149654 0.055693
v -0.000029 0.178276 0.013143
v 0.036154 0.185357 0.036901
v 0.117859 0.211716 0.033831
v 0.128293 0.241723 0.020872
v 0.137807 0.234386 -0.004824
v 0.128563 0.216171 0.012744
v 0.130184 0.195064 0.001589
v 0.152754 0.217185 0.006476
v 0.115492 0.142572 0.006197
v 0.055939 0.112361 0.043842
v -0.003034 0.382840 0.005644
v 0.028463 0.415131 -0.038033
v -0.003354 0.418616 -0.012118
v 0.097275 0.373357 -0.006665
v 0.110848 0.377714 -0.055469
v 0.091839 0.346525 -0.069488
v -0.017857 0.415889 -0.035949
v 0.018084 0.427183 -0.068345
v 0.007604 0.418728 -0.051572
v -0.016994 0.414180 -0.048712
v -0.068168 0.415639 -0.027835
v -0.077229 0.411283 -0.071613
v -0.083115 0.381802 -0.068014
v -0.032651 0.412523 -0.022874
v -0.043707 0.411070 -0.044980
v -0.091662 0.392890 -0.006889
v -0.088391 0.370487 -0.064009
v -0.088627 0.367791 -0.096407
v -0.050449 0.414623 -0.052988
v 0.071180 0.395707 -0.040632
v -0.026318 0.387951 0.005519
v -0.092572 0.368036 -0.006249
v -0.114654 0.357199 -0.052962
v -0.119747 0.369388 -0.073807
v -0.093593 0.357397 -0.076368
v -0.087142 0.342156 0.010557
v -0.114050 0.352488 -0.002897
v -0.106744 0.342839 -0.009216
v -0.128716 0.332680 0.011514
v -0.124458 0.322512 0.014911
v -0.078064 0.332146 0.019649
v -0.139250 0.347684 -0.045115
v -0.128921 0.333846 -0.045002
v -0.132343 0.298617 0.008525
v -0.158995 0.307784 -0.030828
v -0.156810 0.286080 -0.035635
v -0.137697 0.298112 -0.024959
v -0.136644 0.331112 -0.063669
v -0.085883 0.295330 0.006964
v -0.111483 0.305329 0.023091
v -0.158816 0.277444 -0.007478
v -0.130138 0.289674 -0.020373
v -0.117915 0.275418 0.041960
v -0.137916 0.238869 0.031573
v -0.117424 0.258035 0.041247
v -0.114567 0.207789 0.039032
v -0.107453 0.242022 0.042819
v -0.092958 0.241765 0.028194
v -0.133039 0.196531 0.012693
v -0.077251 0.210993 0.036920
v -0.055212 0.189461 0.022905
v -0.044125 0.166046 0.038161
v -0.030756 0.154527 0.046238
v -0.050875 0.134319 0.044024
v -0.036966 0.197347 0.024495
v -0.036286 0.131907 0.048710
v -0.060181 0.123870 0.041935
v -0.079425 0.198916 0.027444
v -0.059379 0.148684 0.048883
v -0.079569 0.113333 0.029699
v -0.155436 0.244350 0.005223
v -0.140510 0.236669 0.013273
v -0.162202 0.219190 -0.001487
v -0.132774 0.164184 0.012255
v -0.094294 0.128462 0.016170
v -0.107443 0.138563 0.021980
v -0.064610 0.087302 0.009117
v -0.105677 0.159756 0.019346
v -0.046011 0.100174 0.036871
v -0.054860 0.083966 0.027889
v -0.020558 0.142638 0.036302
v -0.037421 0.187497 0.011357
v -0.047573 0.118269 0.043164
v -0.031669 0.084390 0.034471
v -0.004440 0.095846 0.044750
v 0.018112 0.119594 0.040737
v 0.011900 0.083019 0.055455
v -0.000524 0.050706 0.041491
v -0.004291 0.038261 0.016335
v -0.016551 0.086068 0.045209
v -0.031456 0.060637 0.023802
v -0.048009 0.061065 0.005953
v 0.030243 0.073124 0.035218
v 0.012873 0.052691 0.021450
v 0.036032 0.109396 0.050239
v 0.047013 0.089803 0.032371
v 0.033966 0.047828 0.009300
v 0.086765 0.110289 0.011980
v -0.020155 0.340396 -0.075887
v 0.035310 0.279134 -0.064870
v 0.094433 0.116424 0.008385
v 0.004555 0.076381 -0.003875
v -0.117689 0.246444 -0.007483
v -0.128874 0.306237 -0.040835
v -0.077242 0.272527 -0.051554
v 0.006004 0.157579 -0.037103
v 0.031766 0.293367 0.041405
v 0.026840 0.331191 0.038983
v 0.034121 0.363139 0.000655
v 0.019889 0.187820 0.069164
v -0.051679 0.300845 0.035356
v -0.059545 0.284073 0.044163
v -0.050983 0.246153 0.038964
v -0.024524 0.212636 0.072794
v 0.115474 0.347193 -0.002802
v 0.057811 0.326223 0.018228
v 0.133718 0.293212 0.009340
v 0.117846 0.275457 0.027526
v 0.095708 0.272886 0.036262
v 0.095441 0.296738 0.018690
v 0.127223 0.257607 0.038657
v 0.099136 0.203386 0.030287
v 0.062337 0.208535 0.043085
v 0.049103 0.207542 0.028734
v 0.082965 0.189677 0.030816
v 0.079260 0.120794 0.027221
v 0.031797 0.195636 0.027031
v 0.009355 0.145639 0.039505
v 0.037737 0.148937 0.042789
v 0.114552 0.161842 0.010708
v 0.151362 0.263885 0.000449
v 0.161391 0.285646 -0.025859
v 0.097529 0.131082 0.013673
v 0.050178 0.354179 0.006255
v 0.016449 0.390360 -0.003575
v 0.036515 0.393104 -0.001489
v 0.067758 0.402387 -0.012272
v 0.091525 0.395380 -0.011942
v -0.062072 0.402509 -0.054941
v -0.076199 0.393215 -0.033334
v -0.111104 0.353521 -0.020118
v -0.120892 0.278018 0.027586
v -0.164456 0.264335 -0.016279
v -0.142666 0.264481 -0.002592
v -0.070050 0.272006 0.022306
v -0.144633 0.208290 -0.001822
v -0.138490 0.212162 0.017153
v -0.112707 0.252001 0.033137
v -0.097256 0.212021 0.036674
v -0.063325 0.242764 0.012505
v -0.096759 0.191531 0.034797
v -0.158683 0.197438 -0.002438
v -0.085971 0.106096 -0.004570
v -0.122733 0.160733 0.007644
v -0.098888 0.127524 0.002772
v -0.035976 0.094865 0.043429
v -0.084086 0.328715 -0.078558
v 0.087728 0.318584 -0.070905
v 0.077429 0.210164 -0.030284
v 0.109558 0.157759 -0.017225
v -0.040656 0.426772 -0.050355
v 0.076835 0.358066 0.003496
v 0.077316 0.327982 0.019095
v 0.116225 0.248381 0.027580
v 0.111965 0.216649 0.020833
v 0.005691 0.439202 -0.054907
v 0.047065 0.391650 -0.055224
v -0.118232 0.328637 -0.013720
v -0.131339 0.353491 -0.043594
v -0.110138 0.201263 0.030579
v -0.011132 0.122992 0.050529
v 0.004816 0.036246 -0.006890
v -0.128996 0.165956 -0.003227
v -0.012176 0.301940 -0.065096
v -0.071421 0.182433 -0.023579
v -0.072184 0.039469 -0.028895
v -0.029918 0.039696 0.071065
v 0.071192 0.039664 0.029599
v 0.029786 0.039647 -0.071081
v -0.105181 0.027526 0.105181
v 0.105286 0.026721 0.105286
v -0.105286 0.026721 -0.105286
v 0.105181 0.027526 -0.105181
vn 0.4084 0.0601 0.9108
vn 0.1745 0.5866 0.7908
vn -0.3109 0.0949 0.9457
vn 0.3506 0.2824 0.8929
vn 0.4562 0.0775 0.8865
vn -0.1132 0.6735 0.7304
vn 0.3061 0.2683 0.9134
vn 0.6277 0.2175 0.7475
vn 0.6623 0.3707 0.6511
vn 0.6467 0.2498 0.7207
vn 0.6646 -0.4291 0.6117
vn 0.4021 0.1064 0.9094
vn 0.2310 0.1979 0.9526
vn 0.3637 0.1593 0.9178
vn 0.0344 0.3988 0.9164
vn -0.1549 0.3712 0.9156
vn 0.3379 -0.4032 0.8504
vn -0.0451 -0.3128 0.9487
vn 0.1013 -0.5114 0.8533
vn 0.5586 -0.7026 0.4409
vn -0.0169 -0.5133 0.8580
vn 0.0090 -0.1739 0.9847
vn 0.4530 -0.7440 0.4913
vn -0.5101 -0.7556 0.4109
vn -0.1340 -0.3649 0.9214
vn -0.3531 -0.9337 -0.0599
vn -0.2549 -0.5717 0.7799
vn -0.4528 0.1942 0.8702
vn -0.5987 0.3135 0.7370
vn -0.6274 0.2341 0.7426
vn -0.5040 0.2084 0.8382
vn -0.2658 0.6000 0.7545
vn 0.0349 0.7132 0.7001
vn -0.2006 0.3939 0.8970
vn -0.4127 0.2692 0.8702
vn -0.7240 0.2756 0.6324
vn -0.6203 0.4588 0.6362
vn -0.8484 -0.1565 0.5056
vn -0.3812 0.1210 0.9165
vn -0.4839 -0.4515 0.7497
vn -0.4308 -0.7273 0.5342
vn -0.8298 -0.5097 0.2271
vn -0.1352 0.4171 0.8987
vn 0.0718 0.5683 0.8197
vn 0.2738 0.5285 0.8036
vn 0.7843 0.3548 0.5089
vn -0.4725 0.3624 0.8034
vn 0.3375 0.9136 0.2268
vn 0.6465 0.3005 0.7012
vn 0.2007 0.1073 0.9738
vn 0.4701 0.0558 0.8809
vn 0.5434 0.5666 0.6194
vn -0.2799 0.0708 0.9574
vn 0.1076 0.1906 0.9758
vn 0.1345 -0.1224 0.9833
vn 0.9644 -0.1780 0.1954
vn 0.5594 0.5122 0.6517
vn 0.9705 0.1024 -0.2182
vn 0.7295 0.6093 0.3108
vn 0.5972 0.0102 -0.8021
vn 0.5926 -0.1752 0.7862
vn 0.1330 0.3363 0.9323
vn 0.9406 0.1728 0.2922
vn 0.3609 -0.0113 0.9325
vn -0.2548 -0.4470 0.8575
vn -0.0182 0.1483 0.9888
vn 0.0883 -0.1417 0.9860
vn 0.5212 -0.1048 0.8469
vn -0.3000 -0.1507 0.9420
vn -0.1329 -0.1404 0.9811
vn 0.1995 0.2013 0.9590
vn -0.0754 0.0314 0.9967
vn 0.5724 0.2913 0.7665
vn 0.6207 0.0733 0.7806
vn 0.4761 -0.1462 0.8671
vn 0.9669 0.1049 0.2328
vn 0.9379 -0.3422 -0.0576
vn 0.6425 -0.1625 0.7489
vn 0.6121 -0.7855 -0.0915
vn 0.3845 -0.6764 -0.6282
vn 0.4546 -0.7835 0.4236
vn 0.2952 0.2559 0.9205
vn 0.5930 -0.0992 0.7991
vn -0.2871 -0.5221 0.8031
vn 0.6859 -0.1244 0.7170
vn -0.2311 0.1409 0.9627
vn -0.3476 0.3974 0.8493
vn 0.0527 0.0861 0.9949
vn -0.2824 0.0925 0.9548
vn 0.9289 -0.0358 0.3685
vn 0.9430 -0.1544 0.2947
vn 0.5512 0.6931 0.4645
vn 0.8079 0.2512 0.5331
vn 0.8768 -0.1190 -0.4660
vn 0.8900 -0.2206 -0.3990
vn 0.6379 -0.1257 0.7598
vn 0.4729 -0.2042 0.8571
vn 0.9831 0.0058 0.1829
vn 0.9269 -0.3460 0.1456
vn 0.0222 0.0176 0.9996
vn 0.5045 -0.2857 0.8148
vn 0.6343 -0.3553 0.6866
vn 0.7691 -0.1122 -0.6292
vn 0.1299 0.4213 0.8976
vn 0.3265 -0.1772 0.9284
vn -0.1169 0.9231 -0.3663
vn -0.1558 0.7105 0.6862
vn 0.3811 0.9209 -0.0824
vn 0.3077 0.0592 -0.9496
vn 0.2233 0.8292 0.5124
vn 0.3090 0.8171 -0.4868
vn 0.5103 0.7231 0.4655
vn 0.7295 0.4414 -0.5225
vn -0.4756 0.8649 0.1605
vn -0.0977 -0.7188 -0.6884
vn -0.2124 0.5890 -0.7798
vn 0.1780 0.5330 -0.8272
vn -0.2839 0.8172 -0.5016
vn -0.6989 0.1580 -0.6976
vn 0.0907 0.8764 0.4730
vn -0.5149 0.7463 0.4219
vn -0.1572 0.3704 0.9155
vn -0.4143 -0.7732 -0.4802
vn -0.3024 0.5090 -0.8059
vn 0.7619 -0.4662 -0.4496
vn -0.7072 0.6993 0.1042
vn -0.3983 0.7274 0.5587
vn 0.3877 0.1172 -0.9143
vn -0.8320 0.2161 -0.5110
vn 0.1153 0.7770 -0.6189
vn -0.7057 -0.1914 -0.6822
vn 0.4187 0.0989 -0.9027
vn 0.2070 -0.5272 -0.8241
vn -0.5434 0.3212 0.7756
vn -0.1887 0.5883 0.7863
vn -0.4741 0.8494 -0.2318
vn -0.7521 0.5955 0.2823
vn -0.9286 0.1841 -0.3221
vn -0.7137 0.0175 0.7003
vn -0.7280 0.4286 0.5350
vn -0.5644 0.6330 0.5299
vn -0.6963 0.7116 0.0936
vn -0.9459 0.3244 -0.0038
vn -0.7652 0.1070 0.6348
vn -0.3959 0.1585 0.9045
vn -0.9790 0.1150 -0.1683
vn -0.7962 -0.1599 -0.5835
vn -0.1628 -0.5389 -0.8265
vn 0.1906 0.2704 0.9437
vn -0.1035 0.0576 0.9930
vn -0.6496 -0.7283 -0.2184
vn -0.6127 -0.5407 0.5764
vn -0.3576 -0.3845 -0.8510
vn -0.8802 0.4415 0.1741
vn -0.6506 -0.5111 -0.5617
vn -0.6703 -0.6225 -0.4040
vn -0.6172 0.5308 0.5808
vn -0.7545 -0.5063 -0.4176
vn -0.3125 0.4782 0.8208
vn -0.1868 0.2016 0.9615
vn -0.9151 0.1781 -0.3617
vn -0.4567 -0.8353 -0.3060
vn -0.5876 -0.0509 0.8075
vn -0.5179 -0.4494 0.7279
vn 0.0291 -0.1831 0.9827
vn -0.2896 -0.4670 0.8355
vn -0.0671 0.2183 0.9736
vn 0.4449 0.0002 0.8956
vn 0.1351 -0.2100 0.9683
vn -0.0527 -0.2919 0.9550
vn -0.7511 -0.2869 0.5946
vn -0.1378 -0.4628 -0.8757
vn -0.2212 -0.1279 0.9668
vn 0.5662 -0.1531 0.8099
vn -0.3324 -0.5190 0.7875
vn 0.5124 0.0237 0.8584
vn 0.0434 0.3759 0.9257
vn 0.3434 0.2836 0.8954
vn -0.1006 0.4170 0.9033
vn -0.1816 -0.0105 0.9833
vn -0.0821 0.0727 0.9940
vn -0.5091 0.0059 0.8607
vn -0.0184 0.0056 0.9998
vn -0.6519 -0.4950 0.5745
vn -0.5697 -0.4680 0.6756
vn -0.8944 0.4454 0.0412
vn -0.9418 -0.3220 -0.0967
vn -0.5182 -0.3951 0.7585
vn -0.7828 -0.5243 0.3351
vn -0.0231 -0.9729 -0.2302
vn -0.2217 -0.0421 0.9742
vn -0.4486 -0.6747 -0.5861
vn -0.7840 -0.5604 0.2672
vn -0.7147 -0.3977 -0.5754
vn -0.6811 -0.1939 0.7061
vn -0.1579 -0.3043 0.9394
vn -0.3807 -0.3444 0.8582
vn -0.6072 -0.4457 0.6577
vn -0.6984 -0.6270 -0.3452
vn 0.0357 0.1547 0.9873
vn -0.4823 -0.2706 0.8332
vn -0.3415 -0.3834 0.8582
vn -0.2672 -0.6145 0.7423
vn -0.2031 -0.9184 0.3395
vn 0.6901 -0.7089 -0.1455
vn 0.0976 -0.7149 -0.6924
vn -0.3649 -0.6099 0.7035
vn -0.6746 -0.6064 -0.4210
vn 0.6671 0.1373 0.7322
vn 0.1201 -0.2808 0.9522
vn 0.0939 -0.0929 0.9912
vn 0.2926 -0.6340 0.7158
vn -0.0169 0.1633 0.9864
vn 0.4277 -0.5134 0.7440
vn -0.2383 -0.1133 -0.9646
vn 0.0379 0.0655 -0.9971
vn 0.0951 -0.2159 -0.9718
vn 0.2735 -0.1348 -0.9524
vn 0.3345 -0.1529 -0.9299
vn 0.5354 -0.3358 -0.7750
vn 0.0663 -0.1723 -0.9828
vn -0.4704 -0.1970 -0.8602
vn -0.3287 -0.3688 -0.8694
vn -0.0096 -0.2415 -0.9704
vn -0.3027 -0.2333 -0.9241
vn 0.0040 -0.3254 -0.9456
vn -0.0276 0.9861 0.1636
vn -0.7190 -0.0594 0.6924
vn 0.6893 -0.0675 0.7214
vn 0.0270 0.9862 -0.1636
vn 0.1664 0.9855 0.0324
vn 0.7191 -0.0592 -0.6924
vn -0.1700 0.9849 -0.0317
vn -0.6883 -0.0669 -0.7223
vn -0.2908 -0.8098 0.5095
vn -0.4930 0.3602 0.7920
vn 0.0250 0.4685 0.8831
vn 0.0936 -0.3091 0.9464
vn -0.2429 -0.4986 0.8321
vn -0.0430 -0.1557 0.9869
vt 0.822747 0.603252
vt 0.729216 0.599181
vt 0.824464 0.577026
vt 0.729464 0.631171
vt 0.710014 0.633286
vt 0.689466 0.610869
vt 0.667304 0.655495
vt 0.711280 0.651332
vt 0.749875 0.647705
vt 0.814058 0.626586
vt 0.748447 0.359820
vt 0.728717 0.397516
vt 0.663657 0.389244
vt 0.691288 0.670444
vt 0.722394 0.696786
vt 0.692863 0.679257
vt 0.629758 0.606580
vt 0.631669 0.520516
vt 0.848256 0.602672
vt 0.850482 0.590584
vt 0.781446 0.404765
vt 0.758288 0.403143
vt 0.775856 0.384153
vt 0.827684 0.608632
vt 0.709882 0.426354
vt 0.768168 0.423269
vt 0.668313 0.421003
vt 0.472229 0.928990
vt 0.462735 0.882507
vt 0.498186 0.918162
vt 0.517089 0.900307
vt 0.497980 0.973996
vt 0.473037 0.978301
vt 0.543269 0.952483
vt 0.554790 0.969037
vt 0.714585 0.325073
vt 0.720696 0.300402
vt 0.727245 0.313237
vt 0.744422 0.519183
vt 0.731087 0.493968
vt 0.758032 0.487654
vt 0.716033 0.515149
vt 0.751164 0.559127
vt 0.677996 0.539388
vt 0.670619 0.479110
vt 0.717829 0.461820
vt 0.693354 0.277355
vt 0.701357 0.289934
vt 0.681588 0.333954
vt 0.765133 0.451768
vt 0.811577 0.477804
vt 0.778924 0.522531
vt 0.628674 0.254041
vt 0.659973 0.246095
vt 0.650679 0.280843
vt 0.248793 0.039599
vt 0.248766 0.065321
vt 0.236997 0.066755
vt 0.629343 0.296518
vt 0.631418 0.347888
vt 0.474671 0.845397
vt 0.505831 0.846405
vt 0.486667 0.790106
vt 0.514414 0.802467
vt 0.538917 0.841980
vt 0.525553 0.225550
vt 0.519610 0.248967
vt 0.512494 0.244371
vt 0.439201 0.882327
vt 0.412208 0.877692
vt 0.404771 0.849716
vt 0.392031 0.878178
vt 0.359328 0.861992
vt 0.348812 0.848871
vt 0.364586 0.832518
vt 0.423591 0.916494
vt 0.393634 0.907399
vt 0.409358 0.937307
vt 0.373982 0.865525
vt 0.364430 0.885065
vt 0.354468 0.953815
vt 0.329914 0.939515
vt 0.312565 0.964855
vt 0.269955 0.947533
vt 0.382250 0.824636
vt 0.337022 0.798008
vt 0.321491 0.866663
vt 0.262183 0.855891
vt 0.575107 0.804272
vt 0.622854 0.818885
vt 0.571091 0.862115
vt 0.562154 0.760255
vt 0.604978 0.775820
vt 0.159852 0.449695
vt 0.135323 0.449046
vt 0.156426 0.444426
vt 0.617075 0.736240
vt 0.667849 0.793634
vt 0.642533 0.782428
vt 0.665046 0.728397
vt 0.678457 0.753226
vt 0.695786 0.786403
vt 0.696584 0.771163
vt 0.707640 0.821572
vt 0.685812 0.829067
vt 0.738946 0.806693
vt 0.731014 0.755564
vt 0.631003 0.657910
vt 0.630976 0.679288
vt 0.593037 0.654632
vt 0.735776 0.772231
vt 0.603600 0.643376
vt 0.757377 0.856288
vt 0.778269 0.837483
vt 0.738692 0.858205
vt 0.755371 0.893148
vt 0.728403 0.879018
vt 0.813016 0.894723
vt 0.802833 0.906927
vt 0.791044 0.890821
vt 0.756992 0.782622
vt 0.744067 0.787707
vt 0.735057 0.719955
vt 0.364273 0.784774
vt 0.326939 0.744191
vt 0.374346 0.761733
vt 0.804891 0.873147
vt 0.313007 0.580691
vt 0.309451 0.676623
vt 0.302508 0.589864
vt 0.338262 0.628139
vt 0.331199 0.699509
vt 0.379463 0.704561
vt 0.380744 0.679144
vt 0.673940 0.842853
vt 0.302823 0.715234
vt 0.661666 0.853571
vt 0.311959 0.901180
vt 0.293562 0.919303
vt 0.236100 0.892878
vt 0.606005 0.884472
vt 0.615612 0.847762
vt 0.646166 0.883334
vt 0.636176 0.903999
vt 0.119134 0.057759
vt 0.160790 0.050149
vt 0.170759 0.076354
vt 0.675742 0.895822
vt 0.051393 0.012468
vt 0.090939 0.028252
vt 0.028295 0.035266
vt 0.213393 0.120917
vt 0.234263 0.141718
vt 0.409091 0.724821
vt 0.431247 0.747632
vt 0.418541 0.781338
vt 0.404256 0.816296
vt 0.397449 0.593786
vt 0.787706 0.258943
vt 0.796277 0.220993
vt 0.831075 0.178078
vt 0.709283 0.232795
vt 0.745416 0.238697
vt 0.728352 0.282063
vt 0.710059 0.257848
vt 0.741925 0.296331
vt 0.790948 0.330967
vt 0.774148 0.355856
vt 0.811439 0.362709
vt 0.829376 0.280868
vt 0.841196 0.307156
vt 0.785196 0.374202
vt 0.845125 0.341816
vt 0.834832 0.369729
vt 0.263702 0.090865
vt 0.274075 0.112223
vt 0.256266 0.109955
vt 0.240004 0.868727
vt 0.715022 0.220896
vt 0.219902 0.474316
vt 0.216656 0.464403
vt 0.238762 0.477779
vt 0.189522 0.463210
vt 0.191300 0.452255
vt 0.329463 0.171765
vt 0.329045 0.207022
vt 0.291743 0.158705
vt 0.221917 0.092515
vt 0.239986 0.090005
vt 0.238330 0.110222
vt 0.729596 0.173686
vt 0.752511 0.125309
vt 0.782267 0.183041
vt 0.720982 0.215048
vt 0.164160 0.009578
vt 0.213075 0.032702
vt 0.172518 0.035177
vt 0.213291 0.065103
vt 0.197648 0.067900
vt 0.461975 0.253440
vt 0.440084 0.252489
vt 0.420358 0.249767
vt 0.766884 0.093678
vt 0.807872 0.098242
vt 0.777450 0.020415
vt 0.802228 0.016205
vt 0.764749 0.032813
vt 0.218740 0.110813
vt 0.711674 0.152322
vt 0.708148 0.164419
vt 0.352127 0.222268
vt 0.385630 0.240644
vt 0.304431 0.091902
vt 0.260643 0.436398
vt 0.303637 0.429426
vt 0.280644 0.439889
vt 0.837939 0.107312
vt 0.899055 0.963595
vt 0.927858 0.934018
vt 0.967808 0.987604
vt 0.818229 0.942676
vt 0.858824 0.940103
vt 0.818610 0.968794
vt 0.884920 0.932827
vt 0.899475 0.925425
vt 0.638407 0.488522
vt 0.642409 0.468421
vt 0.894932 0.884899
vt 0.862116 0.894896
vt 0.813316 0.926568
vt 0.888010 0.823109
vt 0.906970 0.876352
vt 0.649071 0.210415
vt 0.615482 0.217060
vt 0.594283 0.228057
vt 0.794028 0.919093
vt 0.820602 0.909203
vt 0.835972 0.845797
vt 0.972276 0.934276
vt 0.951072 0.919083
vt 0.934655 0.864568
vt 0.832428 0.813045
vt 0.857091 0.822886
vt 0.625355 0.179998
vt 0.680253 0.189543
vt 0.798368 0.941904
vt 0.789960 0.929296
vt 0.553211 0.228700
vt 0.543658 0.229447
vt 0.529688 0.213345
vt 0.566609 0.239333
vt 0.916891 0.637492
vt 0.958977 0.648752
vt 0.873692 0.646552
vt 0.873085 0.812940
vt 0.657950 0.138241
vt 0.962963 0.684833
vt 0.898526 0.680135
vt 0.979442 0.662035
vt 0.688549 0.087061
vt 0.707587 0.110187
vt 0.884049 0.706501
vt 0.821647 0.711498
vt 0.809420 0.666524
vt 0.835840 0.661429
vt 0.970959 0.760873
vt 0.950282 0.779903
vt 0.923380 0.742276
vt 0.933269 0.783330
vt 0.883692 0.738845
vt 0.897713 0.787153
vt 0.876413 0.759510
vt 0.841970 0.764146
vt 0.874856 0.789616
vt 0.810622 0.444113
vt 0.831824 0.469462
vt 0.943807 0.810172
vt 0.952242 0.797674
vt 0.162650 0.794124
vt 0.186943 0.786633
vt 0.170211 0.840306
vt 0.193590 0.846124
vt 0.206030 0.813281
vt 0.206327 0.916296
vt 0.195568 0.874968
vt 0.215832 0.906357
vt 0.143676 0.847776
vt 0.089253 0.803295
vt 0.109753 0.838019
vt 0.048692 0.860708
vt 0.072983 0.855263
vt 0.047300 0.894467
vt 0.036604 0.844918
vt 0.028599 0.888287
vt 0.040133 0.919495
vt 0.074745 0.890719
vt 0.103677 0.953192
vt 0.063054 0.950985
vt 0.951953 0.731159
vt 0.963886 0.711685
vt 0.143435 0.936138
vt 0.183856 0.947668
vt 0.173268 0.950664
vt 0.165817 0.874876
vt 0.076018 0.974739
vt 0.107387 0.975614
vt 0.173046 0.965934
vt 0.119264 0.951399
vt 0.023327 0.911906
vt 0.013391 0.934770
vt 0.016818 0.963604
vt 0.032414 0.974888
vt 0.436678 0.591427
vt 0.436813 0.625210
vt 0.476013 0.645030
vt 0.494696 0.606361
vt 0.518468 0.673976
vt 0.552260 0.672038
vt 0.528353 0.724277
vt 0.564079 0.690821
vt 0.537621 0.618965
vt 0.485477 0.576799
vt 0.540291 0.580296
vt 0.558017 0.609215
vt 0.521735 0.699348
vt 0.479581 0.675197
vt 0.438412 0.711678
vt 0.490254 0.715621
vt 0.425882 0.679633
vt 0.470498 0.744239
vt 0.710444 0.014116
vt 0.729027 0.023125
vt 0.711615 0.043458
vt 0.522378 0.178935
vt 0.500615 0.221873
vt 0.433172 0.150857
vt 0.411500 0.043615
vt 0.321932 0.060216
vt 0.107571 0.158596
vt 0.198220 0.139691
vt 0.259973 0.311731
vt 0.308945 0.284148
vt 0.304870 0.330482
vt 0.652503 0.061329
vt 0.697151 0.042980
vt 0.694056 0.024898
vt 0.563749 0.090120
vt 0.450883 0.096349
vt 0.030415 0.163046
vt 0.175347 0.424324
vt 0.073387 0.457658
vt 0.081455 0.362289
vt 0.217443 0.415468
vt 0.137481 0.273891
vt 0.034749 0.273285
vt 0.256350 0.173831
vt 0.265343 0.185560
vt 0.262692 0.395569
vt 0.178837 0.714442
vt 0.283156 0.771053
vt 0.004500 0.771127
vt 0.108876 0.548974
vt 0.060906 0.666423
vt 0.004430 0.492494
vt 0.227014 0.598417
vt 0.283045 0.492419
vt 0.613831 0.269411
vt 0.327034 0.556421
vt 0.326955 0.269450
vt 0.761947 0.701717
vt 0.632604 0.633103
vt 0.825762 0.554714
vt 0.788308 0.444081
vt 0.515508 0.783206
vt 0.573932 0.711876
vt 0.151708 0.465594
vt 0.135638 0.471200
vt 0.629090 0.793326
vt 0.619565 0.802514
vt 0.439621 0.802016
vt 0.322312 0.768754
vt 0.388288 0.657251
vt 0.713043 0.272131
vt 0.785318 0.291160
vt 0.798575 0.409455
vt 0.270750 0.027099
vt 0.716268 0.079548
vt 0.734086 0.085362
vt 0.712952 0.090772
vt 0.709538 0.206179
vt 0.700811 0.184656
vt 0.730703 0.121502
vt 0.709125 0.127103
vt 0.575358 0.606040
vt 0.580406 0.579978
vt 0.603657 0.612964
vt 0.210349 0.011247
vt 0.194016 0.007532
vt 0.672707 0.227357
vt 0.674462 0.210676
vt 0.684358 0.232424
vt 0.826523 0.029409
vt 0.985691 0.901959
vt 0.954736 0.867225
vt 0.951492 0.619372
vt 0.669777 0.163234
vt 0.888773 0.723925
vt 0.808893 0.736460
vt 0.655197 0.381837
vt 0.625412 0.371127
vt 0.891695 0.800135
vt 0.043321 0.480070
vt 0.011700 0.458509
vt 0.630537 0.423263
vt 0.647276 0.443964
vt 0.627954 0.459005
vt 0.652138 0.428236
vt 0.960128 0.693591
vt 0.701472 0.056046
vt 0.081868 0.476190
vt 0.198507 0.430530
vt 0.060900 0.950316
vt 0.069236 0.795125
vt 0.470840 0.597917
vt 0.453312 0.569881
vt 0.489361 0.634893
vt 0.018381 0.089404
vt 0.306822 0.365389
vt 0.237423 0.420790
vt 0.153483 0.435133
vt 0.121593 0.442247
vt 0.110261 0.450244
vt 0.029644 0.413094
vt 0.612203 0.026507
vt 0.613910 0.556382
s 1
usemtl lion_head
f 1/1/1 8/2/2 2/3/3
f 164/4/4 4/5/5 8/2/2
f 165/6/6 8/2/2 4/5/5
f 165/6/6 4/5/5 173/7/7
f 4/5/5 3/8/8 173/7/7
f 164/4/4 6/9/9 3/8/8
f 6/9/9 164/4/4 5/10/10
f 5/10/10 164/4/4 8/2/2
f 5/11/10 10/12/11 9/13/12
f 173/14/7 43/15/13 7/16/14
f 166/17/15 24/18/16 8/2/2
f 173/7/7 166/17/15 165/6/6
f 12/19/17 1/1/1 28/20/18
f 28/21/18 11/22/19 12/23/17
f 12/23/17 11/22/19 5/11/10
f 5/11/10 11/22/19 10/12/11
f 5/10/10 1/1/1 12/24/17
f 13/25/20 11/22/19 14/26/21
f 10/12/11 13/25/20 181/27/22
f 13/28/20 14/29/21 167/30/23
f 14/29/21 15/31/24 167/30/23
f 13/28/20 184/32/25 181/33/22
f 184/32/25 16/34/26 122/35/27
f 164/36/4 3/37/8 4/38/5
f 19/39/28 168/40/29 169/41/30
f 18/42/31 19/39/28 17/43/32
f 8/2/2 23/44/33 17/43/32
f 17/43/32 23/44/33 18/42/31
f 168/40/29 18/42/31 25/45/34
f 22/46/35 169/41/30 168/40/29
f 21/47/36 20/48/37 170/49/38
f 202/50/39 169/41/30 22/46/35
f 22/46/35 168/40/29 25/45/34
f 170/51/38 20/52/37 169/41/30
f 14/53/21 28/54/18 27/55/40
f 21/47/36 27/55/40 28/54/18
f 21/56/36 28/57/18 2/58/3
f 14/53/21 27/55/40 171/59/41
f 29/60/42 171/59/41 27/55/40
f 171/61/41 15/62/24 14/29/21
f 29/63/42 16/64/26 171/61/41
f 16/64/26 15/62/24 171/61/41
f 167/65/23 15/62/24 16/64/26
f 168/66/29 19/67/28 18/68/31
f 191/69/43 34/70/44 219/71/45
f 31/72/46 219/71/45 34/70/44
f 30/73/47 172/74/48 38/75/49
f 34/70/44 173/76/7 220/77/50
f 173/76/7 7/78/14 220/77/50
f 30/73/47 32/79/51 33/80/52
f 31/72/46 34/70/44 220/77/50
f 220/77/50 177/81/53 35/82/54
f 35/82/54 175/83/55 188/84/56
f 38/75/49 71/85/57 219/71/45
f 37/86/58 71/85/57 38/75/49
f 37/86/58 38/75/49 40/87/59
f 37/86/58 40/87/59 39/88/60
f 177/81/53 175/83/55 35/82/54
f 175/89/55 221/90/61 188/91/56
f 221/90/61 177/92/53 176/93/62
f 176/94/62 178/95/63 221/96/61
f 43/97/13 46/98/64 42/99/65
f 9/100/12 44/101/66 43/97/13
f 46/98/64 44/101/66 47/102/67
f 47/102/67 44/101/66 48/103/68
f 42/99/65 179/104/69 45/105/70
f 42/99/65 46/98/64 179/104/69
f 46/98/64 47/102/67 179/104/69
f 47/102/67 182/106/71 179/104/69
f 180/107/72 44/101/66 9/100/12
f 47/108/67 48/109/68 53/110/73
f 48/103/68 44/101/66 53/111/73
f 53/111/73 44/101/66 180/107/72
f 47/108/67 53/110/73 182/112/71
f 50/113/74 182/106/71 52/114/75
f 49/115/76 50/113/74 66/116/77
f 187/117/78 49/115/76 66/116/77
f 155/118/79 158/119/80 51/120/81
f 50/113/74 52/114/75 51/120/81
f 54/121/82 182/106/71 53/122/73
f 181/123/22 180/107/72 9/100/12
f 180/107/72 181/123/22 54/121/82
f 52/124/75 54/125/82 55/126/83
f 52/114/75 190/127/84 51/120/81
f 139/128/85 184/129/25 122/130/27
f 184/129/25 58/131/86 59/132/87
f 186/133/88 59/132/87 57/134/89
f 221/90/61 45/105/70 60/135/90
f 54/125/82 59/132/87 186/133/88
f 59/132/87 54/125/82 181/136/22
f 60/135/90 222/137/91 221/90/61
f 36/138/92 174/139/93 189/140/94
f 189/140/94 174/139/93 188/84/56
f 62/141/95 61/142/96 63/143/97
f 65/144/98 62/141/95 63/143/97
f 62/145/95 65/146/98 64/147/99
f 64/148/99 63/143/97 222/137/91
f 61/142/96 222/137/91 63/143/97
f 189/149/94 188/150/56 39/151/60
f 39/151/60 188/150/56 62/145/95
f 64/147/99 187/152/78 66/153/77
f 56/154/100 67/155/101 183/156/102
f 52/124/75 183/156/102 190/157/84
f 190/127/84 155/118/79 51/120/81
f 139/128/85 138/158/103 58/131/86
f 192/159/104 68/160/105 24/161/16
f 192/159/104 223/162/106 70/163/107
f 69/164/108 75/165/109 223/162/106
f 69/166/108 194/167/110 87/168/111
f 87/168/111 194/167/110 195/169/112
f 194/167/110 166/170/15 191/171/43
f 195/169/112 194/167/110 191/171/43
f 195/169/112 72/172/113 87/168/111
f 195/169/112 219/173/45 71/174/57
f 37/175/58 72/176/113 71/177/57
f 40/87/59 189/140/94 39/178/60
f 74/179/114 70/163/107 223/162/106
f 76/180/115 223/181/106 75/182/109
f 223/181/106 77/183/116 74/184/114
f 224/185/117 69/186/108 87/187/111
f 218/188/118 77/189/116 82/190/119
f 81/191/120 78/192/121 88/193/122
f 88/193/122 68/160/105 74/194/114
f 80/195/123 78/196/121 79/197/124
f 81/198/120 196/199/125 79/197/124
f 197/200/126 196/201/125 82/202/119
f 88/193/122 197/203/126 24/161/16
f 24/161/16 197/203/126 83/204/127
f 85/205/128 91/206/129 84/207/130
f 84/207/130 91/206/129 83/204/127
f 84/207/130 83/204/127 197/203/126
f 86/208/131 218/188/118 82/190/119
f 82/209/119 81/191/120 86/210/131
f 76/211/115 69/186/108 77/212/116
f 69/186/108 224/185/117 77/212/116
f 87/187/111 72/176/113 73/213/132
f 68/160/105 88/193/122 24/161/16
f 92/214/133 91/215/129 85/216/128
f 83/204/127 89/217/134 24/161/16
f 89/218/134 93/219/135 24/220/16
f 226/221/136 198/222/137 90/223/138
f 89/218/134 198/222/137 94/224/139
f 95/225/140 89/218/134 94/224/139
f 95/225/140 94/224/139 198/222/137
f 25/45/34 24/226/16 93/227/135
f 96/228/141 95/225/140 225/229/142
f 225/229/142 198/222/137 99/230/143
f 101/231/144 97/232/145 96/228/141
f 102/233/146 225/234/142 100/235/147
f 105/236/148 100/237/147 99/230/143
f 96/228/141 102/238/146 101/231/144
f 25/239/34 98/240/149 107/241/150
f 102/238/146 103/242/151 104/243/152
f 102/233/146 161/244/153 103/245/151
f 226/221/136 100/246/147 105/247/148
f 90/248/138 91/249/129 92/250/133
f 226/251/136 90/248/138 100/235/147
f 101/252/144 108/253/154 107/254/150
f 109/255/155 101/231/144 104/243/152
f 161/244/153 109/256/155 103/245/151
f 201/257/156 199/258/157 200/259/158
f 201/260/156 200/261/158 109/256/155
f 110/262/159 202/263/39 22/264/35
f 22/264/35 106/265/160 110/262/159
f 130/266/161 209/267/162 111/268/163
f 111/268/163 204/269/164 205/270/165
f 113/271/166 114/272/167 204/269/164
f 202/263/39 205/270/165 114/272/167
f 115/273/168 202/263/39 114/272/167
f 115/273/168 114/272/167 206/274/169
f 170/51/38 207/275/170 29/276/42
f 114/272/167 113/271/166 206/274/169
f 116/277/171 204/269/164 203/278/172
f 207/279/170 26/280/173 117/281/174
f 206/282/169 26/280/173 115/283/168
f 26/280/173 206/282/169 117/281/174
f 116/284/171 227/285/175 204/286/164
f 207/279/170 117/281/174 125/287/176
f 122/288/27 207/279/170 118/289/177
f 120/290/178 119/291/179 121/292/180
f 122/288/27 120/290/178 138/293/103
f 120/290/178 123/294/181 138/293/103
f 124/295/182 123/294/181 121/292/180
f 118/289/177 125/287/176 126/296/183
f 126/296/183 132/297/184 127/298/185
f 121/292/180 126/296/183 127/298/185
f 111/268/163 199/258/157 129/299/186
f 129/299/186 199/258/157 128/300/187
f 135/301/188 131/302/189 211/303/190
f 131/302/189 208/304/191 116/284/171
f 126/296/183 208/304/191 132/297/184
f 127/298/185 132/297/184 210/305/192
f 210/305/192 132/297/184 212/306/193
f 131/302/189 230/307/194 211/303/190
f 212/306/193 133/308/195 135/301/188
f 140/309/196 124/295/182 136/310/197
f 136/310/197 124/295/182 137/311/198
f 137/311/198 124/295/182 134/312/199
f 138/158/103 123/313/181 58/131/86
f 228/314/200 58/131/86 123/313/181
f 142/315/201 228/314/200 141/316/202
f 145/317/203 146/318/204 154/319/205
f 145/317/203 142/315/201 146/318/204
f 146/318/204 229/320/206 154/319/205
f 148/321/207 141/316/202 136/322/197
f 137/323/198 148/321/207 136/322/197
f 137/323/198 149/324/208 148/321/207
f 151/325/209 145/317/203 154/319/205
f 144/326/210 151/325/209 152/327/211
f 150/328/212 152/327/211 151/325/209
f 152/327/211 56/154/100 143/329/213
f 56/154/100 152/327/211 67/155/101
f 153/330/214 151/325/209 154/319/205
f 84/331/130 92/332/133 85/333/128
f 92/250/133 214/334/215 90/248/138
f 84/335/130 214/334/215 92/250/133
f 84/335/130 82/202/119 156/336/216
f 157/337/217 73/213/132 215/338/218
f 224/185/117 87/187/111 73/213/132
f 216/339/219 62/145/95 217/340/220
f 159/341/221 154/342/205 229/343/206
f 160/344/222 201/260/156 109/256/155
f 129/345/186 160/344/222 130/346/161
f 162/347/223 109/256/155 161/244/153
f 162/347/223 161/244/153 214/334/215
f 231/348/224 156/336/216 73/213/132
f 216/339/219 157/349/217 62/145/95
f 231/348/224 157/337/217 162/347/223
f 210/350/192 230/351/194 232/352/225
f 134/353/199 232/352/225 163/354/226
f 232/352/225 162/355/223 163/354/226
f 217/340/220 158/356/80 163/354/226
f 158/356/80 155/357/79 163/354/226
f 155/357/79 154/342/205 159/341/221
f 229/343/206 149/358/208 159/341/221
f 234/359/227 237/360/228 238/361/229
f 236/362/230 235/363/231 240/364/232
f 234/359/227 238/361/229 235/363/231
f 233/365/233 237/360/228 234/359/227
f 236/362/230 240/364/232 239/366/234
f 233/365/233 236/362/230 239/366/234
f 235/363/231 238/361/229 240/364/232
f 236/362/230 233/365/233 235/363/231
f 235/363/231 233/365/233 234/359/227
f 239/367/234 238/368/229 237/369/228
f 3/8/8 6/9/9 43/15/13
f 1/1/1 5/10/10 8/2/2
f 6/9/9 5/10/10 9/370/12
f 173/14/7 3/8/8 43/15/13
f 8/2/2 165/6/6 166/17/15
f 191/371/43 166/17/15 173/7/7
f 11/22/19 28/21/18 14/26/21
f 10/12/11 11/22/19 13/25/20
f 10/12/11 181/27/22 9/13/12
f 13/28/20 167/30/23 184/32/25
f 184/32/25 167/30/23 16/34/26
f 8/2/2 17/43/32 2/3/3
f 169/41/30 20/52/37 19/39/28
f 21/372/36 2/3/3 17/43/32
f 20/52/37 17/43/32 19/39/28
f 20/52/37 21/372/36 17/43/32
f 8/2/2 24/18/16 23/44/33
f 23/44/33 25/45/34 18/42/31
f 202/50/39 26/373/173 169/41/30
f 26/373/173 170/51/38 169/41/30
f 27/55/40 21/47/36 170/49/38
f 29/60/42 27/55/40 170/49/38
f 1/1/1 2/3/3 28/20/18
f 207/275/170 170/51/38 26/373/173
f 122/374/27 16/64/26 29/63/42
f 32/79/51 38/75/49 219/71/45
f 30/73/47 38/75/49 32/79/51
f 219/71/45 31/72/46 32/79/51
f 34/70/44 191/69/43 173/76/7
f 31/72/46 220/77/50 33/80/52
f 35/82/54 33/80/52 220/77/50
f 176/93/62 7/375/14 43/97/13
f 7/78/14 177/81/53 220/77/50
f 33/80/52 35/82/54 36/138/92
f 174/139/93 36/138/92 35/82/54
f 174/139/93 35/82/54 188/84/56
f 30/73/47 33/80/52 172/74/48
f 32/79/51 31/72/46 33/80/52
f 33/80/52 36/138/92 40/87/59
f 40/87/59 38/75/49 172/74/48
f 33/80/52 40/87/59 172/74/48
f 40/87/59 36/138/92 189/140/94
f 221/90/61 175/89/55 177/92/53
f 188/91/56 221/90/61 61/142/96
f 177/92/53 7/375/14 176/93/62
f 178/95/63 41/376/235 221/377/61
f 176/93/62 41/378/235 178/379/63
f 41/378/235 42/99/65 221/90/61
f 43/97/13 41/378/235 176/93/62
f 42/99/65 41/378/235 43/97/13
f 43/97/13 44/101/66 46/98/64
f 42/99/65 45/105/70 221/90/61
f 45/105/70 179/104/69 187/117/78
f 50/113/74 179/104/69 182/106/71
f 179/104/69 50/113/74 49/115/76
f 187/117/78 179/104/69 49/115/76
f 66/116/77 50/113/74 51/120/81
f 158/119/80 66/116/77 51/120/81
f 155/380/79 190/157/84 183/156/102
f 54/121/82 53/122/73 180/107/72
f 52/124/75 182/381/71 54/125/82
f 59/132/87 181/136/22 184/129/25
f 57/134/89 59/132/87 185/382/236
f 143/329/213 57/134/89 185/382/236
f 139/128/85 58/131/86 184/129/25
f 59/132/87 58/131/86 185/382/236
f 143/329/213 186/133/88 57/134/89
f 54/125/82 56/154/100 55/126/83
f 56/154/100 54/125/82 186/133/88
f 60/135/90 45/105/70 187/117/78
f 64/148/99 222/137/91 187/117/78
f 222/137/91 60/135/90 187/117/78
f 222/137/91 61/142/96 221/90/61
f 62/141/95 188/91/56 61/142/96
f 63/143/97 64/148/99 65/144/98
f 52/124/75 55/126/83 183/156/102
f 55/126/83 56/154/100 183/156/102
f 143/329/213 185/382/236 228/314/200
f 192/159/104 70/163/107 68/160/105
f 192/159/104 69/164/108 223/162/106
f 69/164/108 76/383/115 75/165/109
f 192/159/104 193/384/237 69/164/108
f 192/159/104 166/170/15 193/384/237
f 192/159/104 24/161/16 166/170/15
f 69/166/108 193/384/237 194/167/110
f 193/384/237 166/170/15 194/167/110
f 72/385/113 195/169/112 71/174/57
f 195/169/112 191/171/43 219/173/45
f 37/175/58 73/213/132 72/176/113
f 73/213/132 37/175/58 215/338/218
f 39/386/60 215/338/218 37/175/58
f 68/160/105 70/163/107 74/194/114
f 223/387/106 76/388/115 77/389/116
f 88/193/122 78/192/121 197/203/126
f 81/191/120 77/390/116 218/391/118
f 79/392/124 78/192/121 81/191/120
f 196/393/125 81/191/120 82/209/119
f 79/394/124 196/395/125 80/396/123
f 78/196/121 80/195/123 197/397/126
f 197/397/126 80/195/123 196/398/125
f 84/335/130 197/200/126 82/202/119
f 218/399/118 86/400/131 81/401/120
f 81/191/120 74/194/114 77/390/116
f 88/193/122 74/194/114 81/191/120
f 90/402/138 83/204/127 91/206/129
f 90/402/138 89/217/134 83/204/127
f 89/218/134 90/223/138 198/222/137
f 89/218/134 95/225/140 93/219/135
f 24/18/16 25/45/34 23/44/33
f 25/239/34 93/219/135 98/240/149
f 98/240/149 93/219/135 97/232/145
f 93/219/135 96/228/141 97/232/145
f 96/228/141 93/219/135 95/225/140
f 100/237/147 225/229/142 99/230/143
f 225/229/142 95/225/140 198/222/137
f 99/230/143 198/222/137 226/221/136
f 99/230/143 226/221/136 105/236/148
f 107/241/150 98/240/149 97/232/145
f 101/231/144 107/241/150 97/232/145
f 102/238/146 96/228/141 225/229/142
f 22/403/35 25/239/34 107/241/150
f 106/404/160 22/403/35 107/241/150
f 104/243/152 101/231/144 102/238/146
f 161/244/153 102/233/146 100/235/147
f 107/254/150 199/258/157 106/265/160
f 107/254/150 108/253/154 199/258/157
f 108/253/154 101/252/144 109/405/155
f 108/253/154 109/405/155 200/259/158
f 103/245/151 109/256/155 104/406/152
f 108/253/154 200/259/158 199/258/157
f 110/262/159 106/265/160 199/258/157
f 111/268/163 110/262/159 199/258/157
f 129/299/186 130/266/161 111/268/163
f 111/268/163 209/267/162 204/269/164
f 111/268/163 205/270/165 112/407/238
f 111/268/163 112/407/238 110/262/159
f 205/270/165 202/263/39 112/407/238
f 112/407/238 202/263/39 110/262/159
f 26/408/173 202/263/39 115/273/168
f 204/269/164 114/272/167 205/270/165
f 29/60/42 207/409/170 122/410/27
f 204/269/164 227/411/175 113/271/166
f 203/278/172 204/269/164 209/267/162
f 227/411/175 206/274/169 113/271/166
f 117/281/174 206/282/169 227/285/175
f 117/281/174 227/285/175 208/304/191
f 230/351/194 116/412/171 203/413/172
f 116/284/171 208/304/191 227/285/175
f 125/287/176 117/281/174 208/304/191
f 118/289/177 119/291/179 122/288/27
f 121/292/180 123/294/181 120/290/178
f 122/288/27 119/291/179 120/290/178
f 118/289/177 207/279/170 125/287/176
f 119/291/179 118/289/177 126/296/183
f 121/292/180 119/291/179 126/296/183
f 130/414/161 203/415/172 209/416/162
f 130/414/161 160/417/222 203/415/172
f 201/418/156 128/300/187 199/258/157
f 160/344/222 129/345/186 128/419/187
f 135/301/188 208/304/191 131/302/189
f 116/412/171 230/351/194 131/420/189
f 126/296/183 125/287/176 208/304/191
f 132/297/184 208/304/191 135/301/188
f 132/297/184 135/301/188 133/308/195
f 127/421/185 210/350/192 134/353/199
f 135/301/188 211/303/190 230/307/194
f 212/306/193 132/297/184 133/308/195
f 123/294/181 124/295/182 140/309/196
f 124/295/182 121/292/180 127/298/185
f 134/312/199 124/295/182 127/422/185
f 138/293/103 139/423/85 122/288/27
f 213/424/239 123/313/181 136/322/197
f 136/322/197 123/313/181 140/425/196
f 213/424/239 228/314/200 123/313/181
f 213/424/239 136/322/197 141/316/202
f 141/316/202 228/314/200 213/424/239
f 144/326/210 143/329/213 228/314/200
f 144/326/210 228/314/200 142/315/201
f 145/317/203 144/326/210 142/315/201
f 146/318/204 142/315/201 148/321/207
f 147/426/240 142/315/201 141/316/202
f 147/426/240 141/316/202 148/321/207
f 142/315/201 147/426/240 148/321/207
f 148/321/207 149/324/208 146/318/204
f 151/325/209 144/326/210 145/317/203
f 152/327/211 143/329/213 144/326/210
f 143/329/213 56/154/100 186/133/88
f 150/328/212 153/330/214 152/327/211
f 150/328/212 151/325/209 153/330/214
f 152/327/211 153/330/214 67/155/101
f 154/319/205 155/380/79 67/155/101
f 154/319/205 67/155/101 153/330/214
f 183/156/102 67/155/101 155/380/79
f 90/248/138 214/334/215 100/235/147
f 214/334/215 84/335/130 156/336/216
f 156/336/216 82/202/119 77/212/116
f 77/212/116 224/185/117 156/336/216
f 73/213/132 156/336/216 224/185/117
f 39/151/60 62/145/95 157/349/217
f 215/427/218 39/151/60 157/349/217
f 217/340/220 62/145/95 64/147/99
f 217/340/220 64/147/99 66/153/77
f 217/340/220 66/153/77 158/356/80
f 146/428/204 149/358/208 229/343/206
f 137/429/198 134/353/199 149/358/208
f 210/350/192 212/430/193 230/351/194
f 230/351/194 212/431/193 135/432/188
f 203/413/172 160/433/222 230/351/194
f 160/344/222 128/419/187 201/260/156
f 162/347/223 160/344/222 109/256/155
f 214/334/215 161/244/153 100/235/147
f 232/434/225 160/344/222 162/347/223
f 230/351/194 160/433/222 232/352/225
f 156/336/216 231/348/224 214/334/215
f 162/347/223 214/334/215 231/348/224
f 157/337/217 231/348/224 73/213/132
f 157/349/217 163/354/226 162/355/223
f 210/350/192 232/352/225 134/353/199
f 216/339/219 163/354/226 157/349/217
f 163/354/226 216/339/219 217/340/220
f 159/341/221 134/353/199 163/354/226
f 163/354/226 155/357/79 159/341/221
f 149/358/208 134/353/199 159/341/221
f 6/9/9 9/370/12 43/15/13
f 58/131/86 228/314/200 185/382/236
f 233/365/233 239/366/234 237/360/228
f 239/367/234 240/435/232 238/368/229
